<svg width="222" height="32" viewBox="0 0 222 32" fill="none" xmlns="http://www.w3.org/2000/svg">
<path d="M51.1701 21.0439C51.0083 21.0439 50.8464 21.0979 50.6846 21.1518C50.4689 20.3966 50.2531 19.6413 50.0913 18.8861L50.9543 17.6993C51.0622 17.5375 52.5187 15.7033 52.5187 13.977C52.5187 11.4416 50.361 11.3877 50.1452 11.3877C49.6058 11.3877 48.7966 11.6034 48.3112 12.2508C47.8257 12.8442 47.7178 13.6534 47.9336 14.6244C47.9875 14.7862 48.473 16.7283 49.0124 18.6703L48.1493 19.8032L46.2613 12.5745L50.5767 9.39166C51.7635 8.47459 52.4647 7.01806 52.4647 5.50758C52.4647 3.18792 50.8464 1.19193 48.6348 0.70642V0.220909L47.7717 0.00512695V0.544583L45.2904 0.382746H44.4812V2.37873H45.2904C45.5062 2.37873 45.7219 2.59452 45.7219 2.8103C45.7219 3.02608 45.5062 3.24186 45.2904 3.24186L42.5933 2.97214L42.809 3.83527L45.2364 4.05105H45.2904C45.9916 4.05105 46.5311 3.51159 46.5311 2.8103C46.5311 2.10901 45.9916 1.56955 45.2904 1.56955V1.24588L47.7178 1.40771V3.72737C47.7178 3.9971 47.6099 4.21289 47.4481 4.37472C47.2863 4.53656 47.0165 4.64445 46.7468 4.5905L43.9958 4.42867L44.2115 5.23785C43.4563 5.72336 42.809 6.37071 42.3236 7.072L41.2447 4.75234C41.4065 4.48261 41.4605 4.15894 41.4605 3.88921C41.4605 2.8103 40.5974 1.94717 39.5186 1.94717C38.8173 1.94717 38.2239 2.27084 37.9003 2.8103L38.1161 0.544583H20.8006L20.9624 2.86424C20.6387 2.32479 19.9914 2.00111 19.3441 2.00111C18.2653 2.00111 17.4022 2.86424 17.4022 3.94316C17.4022 4.26683 17.4561 4.53656 17.618 4.80629L16.5391 7.12595C16.0536 6.37071 15.4063 5.77731 14.6511 5.2918L14.8669 4.48261L12.1158 4.64445C11.8461 4.64445 11.6304 4.5905 11.4146 4.42867C11.2528 4.15894 11.1988 3.94316 11.1988 3.67343V1.35377L13.6262 1.19193V1.5156C12.925 1.5156 12.3856 2.10901 12.3856 2.75635C12.3856 3.45765 12.925 3.9971 13.6262 3.9971H13.6802L16.1076 3.83527L16.3233 2.97214L13.6262 3.24186C13.4105 3.24186 13.1947 3.02608 13.1947 2.8103C13.1947 2.59452 13.4105 2.37873 13.6262 2.37873H14.4354V0.436692H13.6262L11.1988 0.544583V0.00512695L10.3357 0.220909V0.652474C8.07016 1.13798 6.50583 3.13397 6.50583 5.45363C6.50583 6.96411 7.20708 8.42064 8.39382 9.33772L12.7092 12.5205L10.8212 19.8032L9.95814 18.6703C10.4976 16.7822 10.983 14.8402 11.037 14.6244C11.2528 13.6534 11.1449 12.8442 10.6594 12.2508C10.1739 11.6034 9.36478 11.3877 8.82536 11.3877C8.55564 11.3877 6.39795 11.4955 6.39795 14.031C6.39795 15.7033 7.85439 17.5375 7.96228 17.7532L8.82536 18.8861C8.60959 19.6413 8.39382 20.3966 8.23199 21.1518C8.1241 21.0979 7.96228 21.0439 7.80045 21.0439C7.15314 21.0439 6.61372 21.5834 6.61372 22.2307C6.61372 22.8781 7.15314 23.4175 7.80045 23.4175C8.33987 23.4175 8.82535 23.0399 8.93324 22.5544C8.98718 22.2847 9.31084 21.2058 9.63449 19.965L10.4976 21.0979L8.23199 29.6213C8.17805 29.7831 8.17805 29.891 8.17805 30.0528C8.17805 31.1317 9.04112 31.9949 10.12 31.9949C11.1988 31.9949 12.0619 31.1317 12.0619 30.0528C12.0619 29.5673 11.9001 29.1358 11.5764 28.7581L13.5723 25.5214L17.564 31.1317C17.9416 31.6712 18.535 31.9409 19.1823 31.9409C20.2611 31.9409 21.1242 31.0778 21.1242 29.9989C21.1242 28.92 20.2611 28.0568 19.1823 28.0568H19.0744L16.3773 20.3966C16.1076 19.6953 15.5142 19.2098 14.759 19.1019H14.4354L16.2694 15.1099L18.6968 16.8901C19.0205 17.1598 19.452 17.3217 19.8835 17.3217C19.9914 17.3217 20.0993 17.3217 20.2611 17.2677L20.9624 24.3346C21.1782 26.2766 22.2031 28.1647 23.8213 29.6213C25.4935 31.1317 27.4894 31.9409 29.5392 31.9409C31.589 31.9409 33.6388 31.1317 35.2571 29.6213C36.8754 28.1647 37.9003 26.2227 38.1161 24.3346L38.7634 17.3217C38.8712 17.3217 38.9791 17.3756 39.141 17.3756C39.5725 17.3756 40.004 17.2138 40.3277 16.9441L42.7551 15.1638L44.5891 19.1558H44.2655C43.5103 19.2637 42.9169 19.7492 42.6472 20.4505L39.9501 28.1108H39.8422C38.7634 28.1108 37.9003 28.9739 37.9003 30.0528C37.9003 31.1317 38.7634 31.9949 39.8422 31.9949C40.4895 31.9949 41.0829 31.6712 41.4605 31.1857L45.4522 25.5754L47.4481 28.8121C47.0165 29.1358 46.8547 29.5673 46.8547 30.0528C46.8547 31.1317 47.7178 31.9949 48.7966 31.9949C49.8755 31.9949 50.7386 31.1317 50.7386 30.0528C50.7386 29.891 50.7386 29.7831 50.6846 29.6213L48.473 21.0979L49.3361 19.965C49.6597 21.2058 49.9834 22.2847 50.0373 22.5544C50.1452 23.0399 50.6307 23.4175 51.1701 23.4175C51.8174 23.4175 52.3568 22.8781 52.3568 22.2307C52.3568 21.5834 51.8174 21.0439 51.1701 21.0439ZM9.20295 17.6453L8.82536 17.1059C8.44776 16.6204 7.4768 15.1638 7.4768 14.031C7.4768 12.6284 8.44776 12.4666 8.82536 12.4666C9.14901 12.4666 9.58055 12.5745 9.9042 12.9521C10.1739 13.2757 10.2279 13.8152 10.12 14.4626C10.0121 14.5704 9.63449 15.9191 9.20295 17.6453ZM39.6264 2.97214C40.1659 2.97214 40.5435 3.4037 40.5435 3.88921C40.5435 4.10499 40.4895 4.26683 40.3816 4.42867L40.2198 4.64445L41.892 8.15092C41.6762 8.74432 41.5144 9.33772 41.5144 9.98507L38.8173 4.15894C38.7634 4.05105 38.7634 3.94316 38.7634 3.83527C38.6555 3.4037 39.087 2.97214 39.6264 2.97214ZM33.8546 5.56153H31.4811V4.42867H33.9085L33.8546 5.56153ZM30.672 5.56153H28.2985V4.42867H30.672V5.56153ZM27.4894 5.56153H25.1159L25.062 4.42867H27.4355L27.4894 5.56153ZM24.2529 5.56153H22.0412L21.9333 4.42867H24.2529V5.56153ZM36.8754 6.42466L36.7675 7.7733H22.2031L22.0952 6.42466H36.8754ZM36.9293 5.56153H34.6637L34.7177 4.42867H37.0372L36.9293 5.56153ZM35.6347 1.40771L35.5808 2.86424H36.3899L36.4438 1.40771H37.253L37.0911 3.61948H34.7177L34.7716 1.40771H35.6347ZM32.3442 1.40771L32.2903 2.86424H33.0994L33.1534 1.40771H33.9625L33.9085 3.61948H31.4811L31.5351 1.40771H32.3442ZM29.0537 1.40771V2.86424H29.8629V1.40771H30.672V3.61948H28.2446L28.1907 1.40771H29.0537ZM25.7633 1.40771L25.8172 2.86424H26.6263L26.5724 1.40771H27.4355V3.61948H25.0081L24.9541 1.40771H25.7633ZM22.4728 1.40771L22.5807 2.86424H23.3898L23.3358 1.40771H24.145L24.1989 3.61948H21.8255L21.6636 1.40771H22.4728ZM21.1242 4.6984L21.4479 8.58248H37.5227L37.8463 4.6984L41.3526 12.2508L39.5725 13.5455C39.4646 13.4915 39.3028 13.4915 39.141 13.4915L39.4646 9.98507H19.5059L19.8296 13.4915C19.6678 13.4915 19.5059 13.4915 19.3441 13.5455L17.564 12.2508L21.1242 4.6984ZM21.7176 14.7862H23.8213L25.1699 16.0809H21.7176C21.7715 15.8651 21.8255 15.6494 21.8255 15.4336C21.8255 15.2178 21.7715 15.002 21.7176 14.7862ZM21.1782 13.977C21.1242 13.9231 21.0163 13.8152 20.9084 13.7613L20.7466 11.8192L22.9583 13.9231H21.1782V13.977ZM18.7507 4.6984L18.5889 4.48261C18.481 4.32078 18.4271 4.10499 18.4271 3.94316C18.4271 3.4037 18.8586 3.02608 19.3441 3.02608C19.8835 3.02608 20.2611 3.45765 20.2611 3.94316C20.2611 4.05105 20.2611 4.15894 20.2072 4.26683L17.5101 10.093C17.4561 9.44561 17.3482 8.85221 17.1325 8.25881L18.7507 4.6984ZM14.5972 20.1808C14.813 20.2347 15.2445 20.3426 15.4063 20.8281L18.4271 29.3515L18.9126 29.1897C19.0205 29.1358 19.1283 29.1358 19.1823 29.1358C19.7217 29.1358 20.0993 29.5673 20.0993 30.0528C20.0993 30.5383 19.6678 30.9699 19.1823 30.9699C18.8586 30.9699 18.5889 30.8081 18.4271 30.5923L14.2196 24.6043L14.4893 24.1188C14.6511 23.7951 14.759 23.4715 14.759 23.1478C14.759 22.2847 14.1656 21.5294 13.3565 21.3136L13.7881 20.3426C13.9499 20.2347 14.2735 20.1268 14.5972 20.1808ZM12.1698 21.4755L12.7631 22.2847H12.925C13.4105 22.2847 13.7881 22.6623 13.7881 23.1478C13.7881 23.3096 13.7341 23.4715 13.6802 23.5794L10.2818 28.9739L10.7133 29.2437C10.983 29.4055 11.1449 29.7292 11.1449 29.9989C11.1449 30.5383 10.7133 30.916 10.2279 30.916C9.74238 30.916 9.31084 30.4844 9.31084 29.9989V29.7831L13.6802 13.1139L15.5142 14.4626L12.1698 21.4755ZM19.8835 16.3506C19.6678 16.3506 19.452 16.2967 19.2902 16.1349L9.04112 8.52853C8.07016 7.7733 7.53074 6.64044 7.53074 5.45363C7.53074 3.67343 8.71747 2.16295 10.3357 1.67744V3.61948C10.3357 4.10499 10.5515 4.53656 10.8752 4.86023C11.1988 5.23785 11.6304 5.39969 12.0619 5.39969H12.1698L12.925 5.34574C13.0868 5.39969 13.2486 5.45363 13.3026 5.45363C15.3524 6.26282 16.7009 8.25881 16.7009 10.4706C16.7009 10.7943 16.647 11.1719 16.5931 11.4955L14.4354 9.93112L14.1656 11.01L19.1823 14.7323L19.452 14.6244C19.6678 14.5165 19.9375 14.5165 20.2072 14.6244C20.5308 14.7862 20.8006 15.1099 20.8006 15.4875C20.8006 15.8112 20.6387 16.0809 20.369 16.2428C20.2072 16.2967 20.0454 16.3506 19.8835 16.3506ZM21.1782 16.8901H25.979L27.3276 18.1848H21.34L21.1782 16.8901ZM21.3939 18.994H28.1907L29.5392 20.2887H21.5558L21.3939 18.994ZM21.6097 21.0979H30.4023L31.7509 22.3926H21.7176L21.6097 21.0979ZM21.9333 24.3346L21.8255 23.2557H32.6139L33.9625 24.5504H21.9333V24.3346ZM22.0952 25.3596H34.7716L36.1202 26.6543H22.6346C22.4188 26.2227 22.257 25.7911 22.0952 25.3596ZM29.4853 31.0239C27.9749 31.0239 26.4645 30.4844 25.2238 29.6213H33.7467C32.506 30.4844 30.9957 31.0239 29.4853 31.0239ZM34.7177 28.7581H24.1989C23.7674 28.3805 23.4437 27.949 23.1201 27.4634H35.8505C35.5268 27.949 35.1492 28.3805 34.7177 28.7581ZM37.0372 24.3346C36.9833 24.8201 36.8754 25.3056 36.7136 25.7911L21.34 11.01H38.3318L38.0621 13.7613C37.5227 14.1389 37.1451 14.7323 37.1451 15.4336C37.1451 15.973 37.3609 16.5125 37.7385 16.8362L37.0372 24.3346ZM39.6804 16.1349C39.5186 16.2967 39.3028 16.3506 39.087 16.3506C38.9252 16.3506 38.7094 16.2967 38.5476 16.1888C38.2779 16.027 38.1161 15.7033 38.1161 15.4336C38.1161 15.056 38.3318 14.7323 38.7094 14.5704C38.9252 14.4626 39.1949 14.4626 39.4646 14.5704L39.7343 14.6783L44.751 10.9561L44.4812 9.87717L42.3236 11.4416C42.2696 11.1179 42.2157 10.7943 42.2157 10.4166C42.2157 8.20486 43.5642 6.26282 45.614 5.39969C45.668 5.39969 45.8298 5.34574 45.9916 5.2918L46.7468 5.34574H46.8547C47.2863 5.34574 47.7178 5.18391 48.0414 4.86023C48.3651 4.53656 48.5809 4.10499 48.5809 3.61948V1.67744C50.2531 2.16295 51.3859 3.67343 51.3859 5.45363C51.3859 6.64044 50.8464 7.7733 49.8755 8.52853L39.6804 16.1349ZM40.5435 30.5923C40.3816 30.862 40.058 30.9699 39.7883 30.9699C39.2488 30.9699 38.8712 30.5383 38.8712 30.0528C38.8712 29.5673 39.3028 29.1358 39.7883 29.1358C39.8962 29.1358 40.004 29.1358 40.058 29.1897L40.5435 29.3515L43.5642 20.8281C43.7261 20.3426 44.1576 20.2347 44.3734 20.1808C44.697 20.1268 45.0207 20.2347 45.1286 20.3426L45.5601 21.3136C44.751 21.5294 44.1576 22.2847 44.1576 23.2017C44.1576 23.5254 44.2655 23.903 44.4273 24.1728L44.697 24.6583L40.5435 30.5923ZM49.7137 29.891V30.1068C49.7137 30.6462 49.2821 31.0239 48.7966 31.0239C48.3112 31.0239 47.8796 30.5923 47.8796 30.1068C47.8796 29.7831 48.0414 29.5134 48.3112 29.3515L48.7427 29.0818L45.3443 23.6873C45.2364 23.5254 45.2364 23.4175 45.2364 23.2557C45.2364 22.7702 45.614 22.3926 46.0995 22.3926H46.2613L46.8547 21.5834L43.6182 14.6244L45.4522 13.2757L49.7137 29.891ZM48.9045 14.4086C48.7427 13.7073 48.7966 13.2218 49.1203 12.8981C49.39 12.5745 49.8755 12.4126 50.1991 12.4126C50.6307 12.4126 51.5477 12.5745 51.5477 13.977C51.5477 15.3257 50.1991 16.998 50.1991 17.0519L49.7676 17.5914C49.3361 15.9191 48.9585 14.5704 48.9045 14.4086Z" fill="white"/>
<path d="M66.9213 1.19189C68.108 1.19189 69.0251 1.46162 69.7263 2.00108C70.4276 2.54053 70.7512 3.29577 70.7512 4.26679H68.7014C68.7014 3.78128 68.4856 3.40366 68.2159 3.18788C67.8923 2.9721 67.4607 2.81026 66.8134 2.81026C66.3819 2.81026 66.0043 2.91815 65.7346 3.07999C65.4649 3.24183 65.303 3.5655 65.303 3.88918C65.303 4.1589 65.4109 4.37469 65.5727 4.48258C65.7346 4.59047 65.9503 4.69836 66.274 4.80625C66.5976 4.91414 67.1371 5.02203 67.8923 5.23782C68.7014 5.4536 69.2948 5.66938 69.7263 5.88516C70.1578 6.10095 70.4815 6.42462 70.6973 6.80224C70.913 7.17986 71.0209 7.61142 71.0209 8.15088C71.0209 8.74428 70.8591 9.28374 70.5354 9.76925C70.2118 10.2548 69.7263 10.6324 69.1329 10.8482C68.5396 11.0639 67.8383 11.2258 67.0292 11.2258C65.8425 11.2258 64.8715 10.9021 64.0624 10.3087C63.3072 9.7153 62.9296 8.90612 62.9296 7.82721V7.77326H64.9794C64.9794 8.31272 65.1951 8.79823 65.5727 9.06795C65.9503 9.39163 66.4898 9.55347 67.0831 9.55347C67.6225 9.55347 68.108 9.44557 68.4317 9.22979C68.7553 9.01401 68.9711 8.74428 68.9711 8.31272C68.9711 8.04299 68.8632 7.8272 68.7014 7.66537C68.5396 7.50353 68.2699 7.34169 67.9462 7.2338C67.6225 7.12591 67.0831 6.96408 66.3819 6.80224C65.5188 6.58646 64.8715 6.37067 64.4939 6.10095C64.1163 5.83122 63.7926 5.56149 63.5769 5.23782C63.3611 4.91414 63.2532 4.48258 63.2532 3.99707C63.2532 3.40366 63.415 2.86421 63.7926 2.43264C64.1163 2.00108 64.6018 1.67741 65.1412 1.46162C65.7346 1.29979 66.3279 1.19189 66.9213 1.19189Z" fill="white"/>
<path d="M74.5811 2.0011V4.10498H75.9836V5.39967H74.5811V8.85219C74.5811 9.17587 74.635 9.39165 74.7429 9.49954C74.8508 9.60743 75.0666 9.66138 75.3902 9.66138C75.606 9.66138 75.8217 9.66138 75.9836 9.60743V11.1179C75.7139 11.1719 75.3363 11.1719 74.8508 11.1719C74.0956 11.1719 73.5562 11.064 73.2325 10.7942C72.8549 10.5245 72.6931 10.0929 72.6931 9.49954V5.34573H71.5603V4.05103H72.6931V2.0011H74.5811Z" fill="white"/>
<path d="M80.3529 3.88916C82.4028 3.88916 83.3737 4.53651 83.3737 5.88515V9.55345C83.3737 10.2547 83.4277 10.7403 83.6434 11.01H81.7015C81.6476 10.7942 81.5936 10.5784 81.5936 10.3626C81.0542 10.956 80.2451 11.2258 79.2741 11.2258C78.5729 11.2258 77.9795 11.0639 77.5479 10.6863C77.1164 10.3087 76.9006 9.82318 76.9006 9.17583C76.9006 8.52848 77.1164 8.04297 77.494 7.7193C77.9255 7.34168 78.6807 7.1259 79.7596 7.01801C80.5148 6.96406 81.0003 6.85617 81.216 6.69433C81.4318 6.58644 81.5397 6.37066 81.5397 6.15488C81.5397 5.8312 81.4318 5.61542 81.27 5.45358C81.0542 5.29175 80.7845 5.2378 80.299 5.2378C79.9214 5.2378 79.5978 5.34569 79.382 5.50753C79.1662 5.66937 79.0583 5.93909 79.0044 6.31671H77.0625C77.1164 5.56147 77.4401 4.96807 78.0334 4.59045C78.5729 4.10494 79.382 3.88916 80.3529 3.88916ZM78.7347 9.06794C78.7347 9.66134 79.1123 9.93107 79.9214 9.93107C80.9463 9.93107 81.4857 9.39161 81.4857 8.36665V7.61141C81.3239 7.77325 80.9463 7.88114 80.3529 7.93508C79.8135 7.98903 79.4359 8.09692 79.1662 8.25876C78.8965 8.47454 78.7347 8.69032 78.7347 9.06794Z" fill="white"/>
<path d="M91.6269 1.40771V11.01H89.7928V10.1469C89.3613 10.8482 88.66 11.2258 87.6891 11.2258C86.7181 11.2258 85.9629 10.9021 85.4235 10.2009C84.8841 9.49956 84.5604 8.58248 84.5604 7.50357C84.5604 6.42466 84.8301 5.56153 85.4235 4.91418C86.0169 4.26683 86.7181 3.88921 87.6351 3.88921C88.0667 3.88921 88.4443 3.9971 88.8219 4.15894C89.1995 4.32078 89.4692 4.59051 89.6849 4.91418H89.7389V1.40771H91.6269ZM86.4484 7.55752C86.4484 8.20486 86.6102 8.74432 86.8799 9.17588C87.2036 9.60745 87.5812 9.82323 88.1206 9.82323C88.66 9.82323 89.0916 9.60745 89.3613 9.22983C89.631 8.85221 89.7928 8.25881 89.7928 7.55752C89.7928 6.85622 89.631 6.31677 89.3613 5.93915C89.0916 5.56153 88.66 5.34575 88.1206 5.34575C87.5812 5.34575 87.1497 5.56153 86.8799 5.93915C86.6102 6.31677 86.4484 6.85622 86.4484 7.55752Z" fill="white"/>
<path d="M95.6726 2.0011V4.10498H97.0751V5.39967H95.6726V8.85219C95.6726 9.17587 95.7266 9.39165 95.8345 9.49954C95.9423 9.60743 96.1581 9.66138 96.4818 9.66138C96.6975 9.66138 96.9133 9.66138 97.0751 9.60743V11.1179C96.8054 11.1719 96.4278 11.1719 95.9423 11.1719C95.1871 11.1719 94.6477 11.064 94.3241 10.7942C93.9465 10.5245 93.7846 10.0929 93.7846 9.49954V5.34573H92.6519V4.05103H93.7846V2.0011H95.6726Z" fill="white"/>
<path d="M108.888 1.40771V3.08003L103.71 9.22983H108.996V11.01H100.905V9.33772L106.083 3.18792H101.337V1.40771H108.888Z" fill="white"/>
<path d="M111.909 4.05105V7.98908C111.909 8.52854 112.017 8.9601 112.179 9.22983C112.341 9.49956 112.664 9.66139 113.15 9.66139C113.689 9.66139 114.067 9.49956 114.283 9.17588C114.498 8.85221 114.606 8.3667 114.606 7.66541V4.05105H116.494V11.01H114.66V10.039H114.606C114.121 10.7943 113.42 11.1719 112.449 11.1719C111.532 11.1719 110.884 10.9561 110.507 10.4706C110.129 9.98507 109.913 9.28377 109.913 8.31275V3.9971L111.909 4.05105ZM112.826 1.40771V2.97214H110.992V1.40771H112.826ZM115.577 1.40771V2.97214H113.743V1.40771H115.577Z" fill="white"/>
<path d="M122.212 3.88916C122.374 3.88916 122.536 3.88916 122.644 3.94311V5.72331C122.428 5.66937 122.212 5.66937 121.943 5.66937C120.702 5.66937 120.055 6.4246 120.055 7.88114V11.01H118.167V4.051H120.001V5.34569C120.162 4.91413 120.486 4.53651 120.918 4.26678C121.295 3.99705 121.727 3.88916 122.212 3.88916Z" fill="white"/>
<path d="M125.557 1.40771V2.97214H123.669V1.40771H125.557ZM125.557 4.05105V11.01H123.669V4.05105H125.557Z" fill="white"/>
<path d="M130.304 3.88916C131.275 3.88916 132.03 4.10494 132.623 4.59045C133.216 5.07596 133.54 5.72331 133.594 6.5325H131.706C131.598 5.72331 131.113 5.34569 130.304 5.34569C129.818 5.34569 129.387 5.56147 129.117 5.93909C128.847 6.37066 128.685 6.91011 128.685 7.55746C128.685 8.20481 128.847 8.74427 129.117 9.12189C129.387 9.4995 129.764 9.71529 130.304 9.71529C131.167 9.71529 131.706 9.22978 131.814 8.3127H133.648C133.54 9.22978 133.163 9.93107 132.569 10.4166C131.976 10.9021 131.221 11.1718 130.304 11.1718C129.279 11.1718 128.416 10.8481 127.768 10.2008C127.121 9.55345 126.797 8.69032 126.797 7.61141C126.797 6.47855 127.121 5.56147 127.768 4.86018C128.362 4.21283 129.225 3.88916 130.304 3.88916Z" fill="white"/>
<path d="M136.669 1.40771V5.02207H136.723C136.939 4.64445 137.208 4.37472 137.586 4.15894C137.963 3.94316 138.341 3.83527 138.773 3.83527C139.636 3.83527 140.283 4.05105 140.715 4.48261C141.092 4.91418 141.308 5.61547 141.308 6.58649V10.9561H139.42V7.01806C139.42 6.4786 139.312 6.04704 139.15 5.77731C138.988 5.50758 138.665 5.34574 138.179 5.34574C137.64 5.34574 137.316 5.50758 137.046 5.83126C136.831 6.15493 136.669 6.64044 136.669 7.34173V11.01H134.781V1.40771C134.727 1.40771 136.669 1.40771 136.669 1.40771Z" fill="white"/>
<path d="M63.4536 17.7832H64.8108L69.7652 25.3992V17.7832H70.9642V27.1649H69.5675L64.6395 19.6411V27.1649H63.4536V17.7832Z" fill="white"/>
<path d="M78.8597 26.2689V27.1517C78.6225 27.2308 78.3722 27.2835 78.0955 27.2835C77.4498 27.2835 77.1204 26.9409 77.1072 26.282C76.4616 26.9936 75.6447 27.3625 74.6432 27.3625C73.9712 27.3625 73.4442 27.1912 73.0489 26.8486C72.6536 26.506 72.4691 26.0317 72.4691 25.4388C72.4691 24.2265 73.2729 23.515 74.8804 23.3173C74.9858 23.291 75.1308 23.2778 75.3416 23.2646C76.1058 23.1724 76.567 23.067 76.7515 22.9616C76.9491 22.8166 77.0545 22.5795 77.0545 22.2369C77.0545 21.4858 76.5407 21.1169 75.5129 21.1169C74.9858 21.1169 74.5774 21.2223 74.3138 21.4331C74.0371 21.6439 73.879 21.9997 73.8263 22.5004H72.7326C72.7458 21.7625 73.0094 21.1959 73.5101 20.8006C74.0108 20.3922 74.6959 20.1945 75.5788 20.1945C76.5275 20.1945 77.239 20.4053 77.7134 20.8533C77.8583 20.9851 77.9637 21.1696 78.0428 21.4067C78.1087 21.6307 78.1482 21.8152 78.1614 21.9602C78.1614 22.1051 78.1745 22.3291 78.1745 22.619C78.1745 22.9484 78.1614 23.4491 78.1482 24.1211C78.1218 24.8063 78.1218 25.307 78.1218 25.6364C78.1218 25.8868 78.1482 26.058 78.2141 26.1635C78.28 26.2689 78.3985 26.3084 78.583 26.3084C78.6489 26.3084 78.7411 26.2952 78.8597 26.2689ZM77.0545 23.6467C76.9755 23.6995 76.8832 23.7522 76.8042 23.8049C76.7119 23.8444 76.5934 23.8839 76.4616 23.9103C76.3298 23.9366 76.2376 23.9498 76.1849 23.963C76.1322 23.9762 76.0268 23.9893 75.8423 24.0157C75.6578 24.042 75.5524 24.0552 75.5524 24.0552C75.2757 24.0816 75.0912 24.1079 75.0122 24.1211C74.9331 24.1343 74.775 24.1738 74.5378 24.2397C74.3006 24.2924 74.1425 24.3715 74.0503 24.4505C73.9449 24.5296 73.8526 24.635 73.7604 24.7931C73.6682 24.9512 73.6286 25.1357 73.6286 25.3465C73.6286 25.6891 73.7472 25.9658 73.9844 26.1766C74.2216 26.3743 74.5642 26.4797 74.9858 26.4797C75.5129 26.4797 76.0004 26.3216 76.4221 26.0053C76.8437 25.6891 77.0545 25.307 77.0545 24.8853V23.6467Z" fill="white"/>
<path d="M85.7858 24.6877C85.6804 25.5046 85.3773 26.1635 84.8503 26.6378C84.3232 27.1253 83.6512 27.3625 82.8079 27.3625C81.7802 27.3625 80.9896 27.0463 80.423 26.4138C79.8696 25.7813 79.5797 24.9249 79.5797 23.8576C79.5797 22.7244 79.8827 21.8284 80.4625 21.1696C81.0555 20.5107 81.846 20.1682 82.8475 20.1682C83.6908 20.1682 84.3496 20.379 84.8503 20.8006C85.351 21.2223 85.6541 21.8152 85.7331 22.5926H84.5736C84.3759 21.6044 83.8093 21.1169 82.8738 21.1169C82.215 21.1169 81.7011 21.354 81.3322 21.8284C80.95 22.3027 80.7656 22.9616 80.7656 23.7785C80.7656 24.5955 80.9369 25.2543 81.3058 25.7286C81.6616 26.203 82.1623 26.4402 82.7948 26.4402C83.2955 26.4402 83.7171 26.282 84.0333 25.9922C84.3496 25.6891 84.5604 25.2543 84.6526 24.6877H85.7858Z" fill="white"/>
<path d="M88.1528 17.7832V21.3277C88.6536 20.5766 89.3914 20.1945 90.3797 20.1945C91.9081 20.1945 92.6724 20.9719 92.6724 22.5136V27.1649H91.5524V22.7771C91.5524 22.2632 91.4338 21.8679 91.223 21.5912C91.0121 21.3145 90.6169 21.1696 90.0634 21.1696C89.3783 21.1696 88.8776 21.3936 88.5877 21.8284C88.2978 22.2764 88.1528 22.8957 88.1528 23.7126V27.1649H87.0328V17.7832H88.1528Z" fill="white"/>
<path d="M95.4947 17.7832V21.3277C95.9954 20.5766 96.7333 20.1945 97.7216 20.1945C99.25 20.1945 100.014 20.9719 100.014 22.5136V27.1649H98.8943V22.7771C98.8943 22.2632 98.7757 21.8679 98.5649 21.5912C98.354 21.3145 97.9587 21.1696 97.4053 21.1696C96.7201 21.1696 96.2194 21.3936 95.9296 21.8284C95.6397 22.2764 95.4947 22.8957 95.4947 23.7126V27.1649H94.3747V17.7832H95.4947Z" fill="white"/>
<path d="M107.738 26.2689V27.1517C107.501 27.2308 107.251 27.2835 106.974 27.2835C106.328 27.2835 105.999 26.9409 105.986 26.282C105.34 26.9936 104.523 27.3625 103.522 27.3625C102.85 27.3625 102.323 27.1912 101.927 26.8486C101.532 26.506 101.348 26.0317 101.348 25.4388C101.348 24.2265 102.151 23.515 103.759 23.3173C103.864 23.291 104.009 23.2778 104.22 23.2646C104.984 23.1724 105.446 23.067 105.63 22.9616C105.828 22.8166 105.933 22.5795 105.933 22.2369C105.933 21.4858 105.419 21.1169 104.391 21.1169C103.864 21.1169 103.456 21.2223 103.192 21.4331C102.916 21.6439 102.758 21.9997 102.705 22.5004H101.611C101.624 21.7625 101.888 21.1959 102.389 20.8006C102.889 20.3922 103.574 20.1945 104.457 20.1945C105.406 20.1945 106.118 20.4053 106.592 20.8533C106.737 20.9851 106.842 21.1696 106.921 21.4067C106.987 21.6307 107.027 21.8152 107.04 21.9602C107.04 22.1051 107.053 22.3291 107.053 22.619C107.053 22.9484 107.04 23.4491 107.027 24.1211C107 24.8063 107 25.307 107 25.6364C107 25.8868 107.027 26.058 107.093 26.1635C107.158 26.2689 107.277 26.3084 107.462 26.3084C107.527 26.3084 107.62 26.2952 107.738 26.2689ZM105.933 23.6467C105.854 23.6995 105.762 23.7522 105.683 23.8049C105.59 23.8444 105.472 23.8839 105.34 23.9103C105.208 23.9366 105.116 23.9498 105.063 23.963C105.011 23.9762 104.905 23.9893 104.721 24.0157C104.536 24.042 104.431 24.0552 104.431 24.0552C104.154 24.0816 103.97 24.1079 103.891 24.1211C103.812 24.1343 103.654 24.1738 103.416 24.2397C103.179 24.2924 103.021 24.3715 102.929 24.4505C102.823 24.5296 102.731 24.635 102.639 24.7931C102.547 24.9512 102.507 25.1357 102.507 25.3465C102.507 25.6891 102.626 25.9658 102.863 26.1766C103.1 26.3743 103.443 26.4797 103.864 26.4797C104.391 26.4797 104.879 26.3216 105.301 26.0053C105.722 25.6891 105.933 25.307 105.933 24.8853V23.6467Z" fill="white"/>
<path d="M110 17.7832V27.1649H108.867V17.7832H110Z" fill="white"/>
<path d="M114.667 20.3658V21.2882H113.31V25.2543C113.31 25.4783 113.31 25.6232 113.31 25.6891C113.31 25.7682 113.336 25.8604 113.389 25.979C113.429 26.0976 113.508 26.1766 113.613 26.203C113.718 26.2425 113.863 26.2557 114.061 26.2557C114.219 26.2557 114.43 26.2425 114.667 26.2162V27.1781C114.351 27.2176 114.061 27.2308 113.811 27.2308C113.494 27.2308 113.231 27.2044 113.02 27.1253C112.809 27.0595 112.638 26.9804 112.533 26.8882C112.427 26.8091 112.348 26.651 112.295 26.427C112.243 26.203 112.203 26.0185 112.203 25.8604C112.19 25.7023 112.19 25.4519 112.19 25.083V21.2882H111.044V20.3658H112.19V18.3498H113.31V20.3658H114.667Z" fill="white"/>
<path d="M117.117 17.7832V19.1536H115.984V17.7832H117.117ZM117.117 20.3658V27.1649H115.984V20.3658H117.117Z" fill="white"/>
<path d="M124.763 20.3658V26.4402C124.763 27.0199 124.723 27.4811 124.67 27.7973C124.604 28.1136 124.486 28.4166 124.315 28.6933C123.814 29.5235 122.918 29.9319 121.627 29.9319C120.862 29.9319 120.217 29.787 119.69 29.4708C119.163 29.1545 118.86 28.6406 118.767 27.9291H119.914C120.045 28.6933 120.638 29.0623 121.666 29.0623C122.364 29.0623 122.865 28.891 123.181 28.5352C123.498 28.1926 123.656 27.6261 123.682 26.8355L123.695 26.0053C123.26 26.8355 122.536 27.2439 121.521 27.2439C120.612 27.2439 119.887 26.9409 119.347 26.3084C118.807 25.6891 118.53 24.8458 118.53 23.7917C118.53 22.8035 118.807 21.9602 119.334 21.2486C119.874 20.5371 120.625 20.1813 121.587 20.1813C122.061 20.1813 122.483 20.2867 122.852 20.4844C123.221 20.6952 123.524 20.9851 123.735 21.354V20.3658H124.763ZM121.64 21.1696C121.034 21.1696 120.546 21.3936 120.204 21.8679C119.861 22.3423 119.69 22.9879 119.69 23.818C119.69 24.5559 119.861 25.162 120.23 25.61C120.586 26.058 121.06 26.2952 121.666 26.2952C122.285 26.2952 122.773 26.058 123.129 25.5837C123.484 25.1093 123.669 24.4505 123.669 23.6336C123.669 22.8562 123.484 22.25 123.129 21.8152C122.773 21.3804 122.272 21.1696 121.64 21.1696Z" fill="white"/>
<path d="M132.178 20.3658L129.476 22.8298L132.375 27.1649H130.952L128.62 23.6072L127.553 24.5955V27.1649H126.459V17.7832H127.553V23.3305L130.676 20.3658H132.178Z" fill="white"/>
<path d="M139.123 25.0171C138.78 26.5983 137.792 27.3889 136.158 27.3889C135.157 27.3889 134.366 27.0858 133.799 26.4533C133.233 25.834 132.956 24.9644 132.956 23.8576C132.956 22.7639 133.246 21.8811 133.826 21.1959C134.406 20.5107 135.17 20.1682 136.119 20.1682C137.16 20.1682 137.937 20.5239 138.438 21.2354C138.938 21.947 139.202 22.8298 139.202 23.9103V24.0684H134.089L134.076 24.1475C134.076 24.8722 134.261 25.4388 134.643 25.8472C135.012 26.2689 135.539 26.4665 136.198 26.4665C136.685 26.4665 137.067 26.3611 137.357 26.1239C137.647 25.8999 137.871 25.531 138.029 25.0171H139.123ZM138.042 23.1592C137.99 22.5136 137.792 22.0129 137.449 21.6439C137.107 21.275 136.646 21.0905 136.092 21.0905C135.539 21.0905 135.091 21.275 134.735 21.6439C134.366 22.0129 134.155 22.5267 134.089 23.1592H138.042Z" fill="white"/>
<path d="M141.595 17.7832V19.1536H140.462V17.7832H141.595ZM141.595 20.3658V27.1649H140.462V20.3658H141.595Z" fill="white"/>
<path d="M146.262 20.3658V21.2882H144.905V25.2543C144.905 25.4783 144.905 25.6232 144.905 25.6891C144.905 25.7682 144.932 25.8604 144.984 25.979C145.024 26.0976 145.103 26.1766 145.208 26.203C145.314 26.2425 145.459 26.2557 145.656 26.2557C145.814 26.2557 146.025 26.2425 146.262 26.2162V27.1781C145.946 27.2176 145.656 27.2308 145.406 27.2308C145.09 27.2308 144.826 27.2044 144.615 27.1253C144.405 27.0595 144.233 26.9804 144.128 26.8882C144.022 26.8091 143.943 26.651 143.891 26.427C143.838 26.203 143.798 26.0185 143.798 25.8604C143.785 25.7023 143.785 25.4519 143.785 25.083V21.2882H142.639V20.3658H143.785V18.3498H144.905V20.3658H146.262Z" fill="white"/>
<path d="M152.574 22.3423H151.454C151.374 21.5253 150.821 21.1037 149.793 21.1037C149.358 21.1037 149.016 21.1959 148.779 21.354C148.528 21.5253 148.41 21.7493 148.41 22.026C148.41 22.1051 148.41 22.1842 148.436 22.2632C148.449 22.3423 148.476 22.4082 148.528 22.4609C148.581 22.5136 148.621 22.5663 148.66 22.6058C148.7 22.6585 148.766 22.698 148.858 22.7376C148.95 22.7771 149.016 22.8035 149.069 22.8298C149.121 22.8562 149.2 22.8957 149.332 22.922C149.464 22.9484 149.556 22.9747 149.609 22.9879C149.662 23.0011 149.754 23.0275 149.912 23.0538C150.07 23.0933 150.162 23.1197 150.215 23.1197C150.531 23.1987 150.782 23.2515 150.94 23.291C151.098 23.3437 151.322 23.4227 151.612 23.5413C151.902 23.6599 152.112 23.7785 152.27 23.9103C152.415 24.042 152.547 24.2133 152.666 24.4373C152.784 24.6613 152.85 24.9117 152.85 25.1884C152.85 25.8472 152.587 26.3875 152.073 26.7828C151.559 27.178 150.874 27.3757 150.03 27.3757C149.108 27.3757 148.397 27.178 147.896 26.7696C147.395 26.3743 147.132 25.7813 147.105 25.0171H148.212C148.265 25.979 148.884 26.4533 150.057 26.4533C150.558 26.4533 150.953 26.3611 151.256 26.1503C151.559 25.9395 151.717 25.6628 151.717 25.3202C151.717 25.0962 151.638 24.9117 151.48 24.7536C151.322 24.6086 151.137 24.5032 150.953 24.4373C150.755 24.3715 150.478 24.2924 150.123 24.2002C150.07 24.2002 150.03 24.187 150.004 24.1738C149.925 24.1606 149.754 24.1211 149.49 24.0684C149.227 24.0157 149.042 23.963 148.937 23.9235C148.818 23.8971 148.647 23.8444 148.436 23.7653C148.225 23.6863 148.067 23.6072 147.962 23.5282C147.856 23.4491 147.738 23.3437 147.606 23.2119C147.474 23.0802 147.395 22.9352 147.342 22.7639C147.29 22.5926 147.263 22.395 147.263 22.171C147.263 21.5649 147.487 21.0773 147.962 20.7084C148.436 20.3526 149.069 20.1682 149.859 20.1682C150.65 20.1682 151.309 20.3658 151.809 20.7347C152.31 21.1169 152.574 21.6571 152.574 22.3423Z" fill="white"/>
<path d="M155.189 20.3658L155.176 21.3672C155.479 20.9587 155.796 20.6689 156.138 20.4844C156.481 20.2999 156.902 20.2077 157.39 20.2077C158.325 20.2077 158.958 20.5898 159.287 21.3804C159.867 20.5898 160.618 20.1945 161.541 20.1945C162.239 20.1945 162.766 20.379 163.135 20.7743C163.504 21.1696 163.688 21.7098 163.688 22.4213V27.1781H162.568V22.8957C162.568 22.3291 162.476 21.9074 162.305 21.6176C162.12 21.3277 161.765 21.1959 161.211 21.1959C160.052 21.1959 159.472 21.8943 159.472 23.3173V27.1781H158.352V22.8166C158.352 22.2896 158.26 21.8943 158.088 21.6176C157.917 21.3409 157.588 21.2091 157.1 21.2091C156.402 21.2091 155.914 21.4199 155.651 21.8416C155.387 22.2632 155.255 22.843 155.255 23.5677V27.1649H154.135V20.3658H155.189Z" fill="white"/>
<path d="M168.367 20.1682C169.395 20.1682 170.185 20.4844 170.765 21.1169C171.332 21.7362 171.621 22.6058 171.621 23.7258C171.621 24.8853 171.332 25.7813 170.765 26.4138C170.185 27.0595 169.381 27.3757 168.354 27.3757C167.313 27.3757 166.496 27.0595 165.916 26.427C165.323 25.7945 165.033 24.9249 165.033 23.7917C165.033 22.6849 165.323 21.802 165.929 21.1432C166.522 20.4976 167.339 20.1682 168.367 20.1682ZM168.341 21.1169C167.682 21.1169 167.155 21.354 166.773 21.8284C166.377 22.3159 166.193 22.9616 166.193 23.7653C166.193 24.6086 166.377 25.2543 166.759 25.7286C167.141 26.203 167.682 26.427 168.367 26.427C169.026 26.427 169.54 26.1898 169.909 25.7155C170.277 25.2411 170.475 24.5955 170.475 23.7522C170.475 22.9484 170.277 22.3027 169.895 21.8284C169.513 21.354 168.999 21.1169 168.341 21.1169Z" fill="white"/>
<path d="M174.029 20.3658V21.4199C174.583 20.603 175.36 20.1813 176.349 20.1813C177.139 20.1813 177.719 20.3922 178.075 20.8138C178.43 21.2354 178.615 21.8416 178.615 22.6453V27.1649H177.495V23.1592C177.495 22.8298 177.482 22.5663 177.455 22.3818C177.429 22.1973 177.376 21.9865 177.297 21.7757C177.205 21.5649 177.06 21.4067 176.849 21.3013C176.638 21.2091 176.362 21.1564 176.032 21.1564C174.741 21.1564 174.095 21.9733 174.095 23.6072V27.1649H172.975V20.3658H174.029Z" fill="white"/>
<path d="M181.503 17.7832V19.1536H180.37V17.7832H181.503ZM181.503 20.3658V27.1649H180.37V20.3658H181.503Z" fill="white"/>
<path d="M186.17 20.3658V21.2882H184.813V25.2543C184.813 25.4783 184.813 25.6232 184.813 25.6891C184.813 25.7682 184.84 25.8604 184.892 25.979C184.932 26.0976 185.011 26.1766 185.116 26.203C185.222 26.2425 185.367 26.2557 185.564 26.2557C185.722 26.2557 185.933 26.2425 186.17 26.2162V27.1781C185.854 27.2176 185.564 27.2308 185.314 27.2308C184.998 27.2308 184.734 27.2044 184.523 27.1253C184.312 27.0595 184.141 26.9804 184.036 26.8882C183.93 26.8091 183.851 26.651 183.799 26.427C183.746 26.203 183.706 26.0185 183.706 25.8604C183.693 25.7023 183.693 25.4519 183.693 25.083V21.2882H182.547V20.3658H183.693V18.3498H184.813V20.3658H186.17Z" fill="white"/>
<path d="M190.413 20.1682C191.44 20.1682 192.231 20.4844 192.811 21.1169C193.377 21.7362 193.667 22.6058 193.667 23.7258C193.667 24.8853 193.377 25.7813 192.811 26.4138C192.231 27.0595 191.427 27.3757 190.4 27.3757C189.359 27.3757 188.542 27.0595 187.962 26.427C187.369 25.7945 187.079 24.9249 187.079 23.7917C187.079 22.6849 187.369 21.802 187.975 21.1432C188.568 20.4976 189.385 20.1682 190.413 20.1682ZM190.386 21.1169C189.728 21.1169 189.2 21.354 188.818 21.8284C188.423 22.3159 188.239 22.9616 188.239 23.7653C188.239 24.6086 188.423 25.2543 188.805 25.7286C189.187 26.203 189.728 26.427 190.413 26.427C191.072 26.427 191.585 26.1898 191.954 25.7155C192.323 25.2411 192.521 24.5955 192.521 23.7522C192.521 22.9484 192.323 22.3027 191.941 21.8284C191.559 21.354 191.045 21.1169 190.386 21.1169Z" fill="white"/>
<path d="M198.566 20.2077L198.552 21.3804C198.473 21.3672 198.381 21.3672 198.263 21.3672C197.907 21.3672 197.591 21.4199 197.327 21.5253C197.064 21.6307 196.866 21.7757 196.708 21.947C196.55 22.1314 196.431 22.3423 196.326 22.6058C196.233 22.8693 196.168 23.1329 196.141 23.3964C196.115 23.6599 196.102 23.963 196.102 24.2924V27.1649H194.982V20.3658H196.049V21.8284C196.497 20.7479 197.327 20.2077 198.566 20.2077Z" fill="white"/>
<path d="M200.615 17.7832V19.1536H199.482V17.7832H200.615ZM200.615 20.3658V27.1649H199.482V20.3658H200.615Z" fill="white"/>
<path d="M203.424 20.3658V21.4199C203.978 20.603 204.755 20.1813 205.744 20.1813C206.534 20.1813 207.114 20.3922 207.47 20.8138C207.825 21.2354 208.01 21.8416 208.01 22.6453V27.1649H206.89V23.1592C206.89 22.8298 206.877 22.5663 206.85 22.3818C206.824 22.1973 206.771 21.9865 206.692 21.7757C206.6 21.5649 206.455 21.4067 206.244 21.3013C206.033 21.2091 205.757 21.1564 205.427 21.1564C204.136 21.1564 203.49 21.9733 203.49 23.6072V27.1649H202.37V20.3658H203.424Z" fill="white"/>
<path d="M215.602 20.3658V26.4402C215.602 27.0199 215.563 27.4811 215.51 27.7973C215.444 28.1136 215.325 28.4166 215.154 28.6933C214.653 29.5235 213.757 29.9319 212.466 29.9319C211.702 29.9319 211.056 29.787 210.529 29.4708C210.002 29.1545 209.699 28.6406 209.607 27.9291H210.753C210.885 28.6933 211.478 29.0623 212.506 29.0623C213.204 29.0623 213.705 28.891 214.021 28.5352C214.337 28.1926 214.495 27.6261 214.522 26.8355L214.535 26.0053C214.1 26.8355 213.375 27.2439 212.361 27.2439C211.452 27.2439 210.727 26.9409 210.187 26.3084C209.646 25.6891 209.37 24.8458 209.37 23.7917C209.37 22.8035 209.646 21.9602 210.173 21.2486C210.714 20.5371 211.465 20.1813 212.427 20.1813C212.901 20.1813 213.323 20.2867 213.692 20.4844C214.06 20.6952 214.364 20.9851 214.574 21.354V20.3658H215.602ZM212.479 21.1696C211.873 21.1696 211.386 21.3936 211.043 21.8679C210.7 22.3423 210.529 22.9879 210.529 23.818C210.529 24.5559 210.7 25.162 211.069 25.61C211.425 26.058 211.9 26.2952 212.506 26.2952C213.125 26.2952 213.612 26.058 213.968 25.5837C214.324 25.1093 214.508 24.4505 214.508 23.6336C214.508 22.8562 214.324 22.25 213.968 21.8152C213.612 21.3804 213.112 21.1696 212.479 21.1696Z" fill="white"/>
</svg>
